<?xml version="1.0" standalone="no"?>
<!DOCTYPE svg PUBLIC "-//W3C//DTD SVG 20010904//EN"
 "http://www.w3.org/TR/2001/REC-SVG-20010904/DTD/svg10.dtd">
<svg version="1.0" xmlns="http://www.w3.org/2000/svg"
 width="256.000000pt" height="259.000000pt" viewBox="0 0 256.000000 259.000000"
 preserveAspectRatio="xMidYMid meet">
<metadata>
Created by potrace 1.16, written by Peter Selinger 2001-2019
</metadata>
<g transform="translate(0.000000,259.000000) scale(0.100000,-0.100000)"
fill="#000000" stroke="none">
<path d="M1059 2479 c-520 -76 -933 -469 -1039 -988 -28 -137 -28 -355 0 -492
103 -503 501 -890 1010 -980 107 -19 335 -16 443 5 510 99 909 509 992 1016
124 768 -463 1457 -1235 1449 -63 -1 -140 -5 -171 -10z m-181 -575 c21 -24 22
-32 22 -227 0 -230 5 -250 60 -255 24 -3 38 2 47 14 16 22 17 120 2 234 -17
135 -15 150 20 182 35 31 59 35 100 13 46 -23 56 -65 71 -294 21 -315 -14
-414 -204 -576 -59 -50 -75 -93 -76 -205 -2 -137 -13 -190 -44 -217 -40 -34
-99 -32 -135 5 -28 27 -29 31 -35 177 -9 181 -22 217 -100 274 -93 69 -145
143 -172 246 -18 66 -17 277 1 430 13 113 16 122 45 148 34 30 58 34 99 12 44
-22 55 -60 42 -147 -20 -141 -24 -244 -11 -269 24 -44 58 -51 90 -19 19 19 20
34 20 228 1 152 4 213 14 231 31 55 102 63 144 15z m930 7 c136 -70 245 -311
246 -546 1 -105 -1 -114 -32 -177 -25 -50 -51 -83 -103 -130 -39 -34 -77 -75
-85 -91 -10 -19 -18 -83 -24 -192 -10 -185 -18 -208 -79 -226 -31 -9 -43 -8
-69 5 -53 28 -59 47 -67 216 -8 187 -19 218 -94 275 -65 49 -125 137 -141 206
-30 122 10 356 83 493 44 83 124 161 184 181 59 18 128 13 181 -14z"/>
</g>
</svg>
