<?xml version="1.0" standalone="no"?>
<!DOCTYPE svg PUBLIC "-//W3C//DTD SVG 20010904//EN"
 "http://www.w3.org/TR/2001/REC-SVG-20010904/DTD/svg10.dtd">
<svg version="1.0" xmlns="http://www.w3.org/2000/svg"
 width="195.000000pt" height="199.000000pt" viewBox="0 0 195.000000 199.000000"
 preserveAspectRatio="xMidYMid meet">

<g transform="translate(0.000000,199.000000) scale(0.100000,-0.100000)"
fill="#000000" stroke="none">
<path d="M157 1757 l-124 -182 33 -702 c18 -389 37 -718 43 -736 13 -39 54
-81 94 -96 16 -6 93 -11 173 -11 l144 0 0 274 0 275 -41 47 c-74 85 -70 62
-67 365 l3 274 47 3 48 3 2 -218 3 -218 30 0 30 0 3 218 2 217 50 0 50 0 2
-217 3 -218 24 -3 c46 -7 51 15 51 235 l0 203 44 0 c31 0 46 -5 50 -16 11 -28
7 -511 -5 -541 -5 -15 -25 -44 -43 -63 -69 -73 -66 -58 -66 -352 l0 -268 225
0 225 0 0 285 c0 316 1 313 -65 375 -20 19 -49 58 -63 85 -25 46 -27 60 -27
165 0 105 2 120 28 174 119 254 350 246 458 -14 19 -45 23 -75 23 -160 1 -127
-14 -168 -98 -259 l-56 -61 0 -295 0 -295 155 0 c167 0 202 7 242 51 12 13 27
38 33 54 7 18 25 315 44 735 l33 705 -124 183 -124 182 -684 0 -684 0 -124
-183z m1187 17 c13 -5 16 -25 16 -110 l0 -104 -395 0 -395 0 0 104 c0 74 4
106 13 109 18 8 742 8 761 1z"/>
</g>
</svg>
